<svg width="16" height="16" fill="none" xmlns="http://www.w3.org/2000/svg"><g clip-path="url(#a)"><g clip-path="url(#b)"><g filter="url(#c)"><rect width="16" height="16" rx="1" fill="#222"/></g><g filter="url(#d)"><mask id="e" maskUnits="userSpaceOnUse" x="4.96" y="4.04" width="6" height="8" fill="#000"><path fill="#fff" d="M4.96 4.04h6v8h-6z"/><path d="M5.456 11.95V4.411h.684v7.537h-.684Zm.318-3.038v-.61h2.372c.688 0 1.2-.134 1.538-.403.343-.275.515-.69.515-1.247 0-.55-.172-.959-.515-1.228-.338-.268-.85-.403-1.538-.403H5.774v-.61h2.419c.881 0 1.547.198 1.997.591.456.394.684.944.684 1.65 0 .72-.228 1.275-.684 1.67-.45.393-1.116.59-1.997.59H5.774Z"/></mask><path d="M5.456 11.95V4.411h.684v7.537h-.684Zm.318-3.038v-.61h2.372c.688 0 1.2-.134 1.538-.403.343-.275.515-.69.515-1.247 0-.55-.172-.959-.515-1.228-.338-.268-.85-.403-1.538-.403H5.774v-.61h2.419c.881 0 1.547.198 1.997.591.456.394.684.944.684 1.65 0 .72-.228 1.275-.684 1.67-.45.393-1.116.59-1.997.59H5.774Z" fill="#fff"/><path d="M5.456 11.95h-.032v.03h.032v-.03Zm0-7.538V4.38h-.032v.03h.032Zm.684 0h.031V4.38H6.14v.03Zm0 7.537v.032h.031v-.032H6.14Zm-.366-3.037h-.031v.031h.031v-.031Zm0-.61v-.03h-.031v.03h.031Zm3.91-.403.02.025-.02-.025Zm0-2.475-.02.025.02-.025Zm-3.91-.403h-.031v.031h.031v-.03Zm0-.61v-.03h-.031v.03h.031Zm4.416.591-.02.024.02-.024Zm0 3.32-.02-.024.02.023Zm-4.703 3.627V4.412h-.063v7.537h.063Zm-.031-7.506h.684v-.062h-.684v.062Zm.653-.031v7.537h.062V4.412H6.11Zm.03 7.506h-.683v.063h.684v-.063Zm-.333-3.006v-.61h-.063v.61h.063Zm-.032-.578h2.372V8.27H5.774v.063Zm2.372 0c.69 0 1.212-.135 1.557-.41l-.039-.05c-.33.263-.833.397-1.518.397v.063Zm1.557-.41c.353-.283.527-.709.527-1.272h-.062c0 .55-.17.955-.504 1.223l.04.049Zm.527-1.272c0-.556-.174-.976-.527-1.252l-.039.049c.335.261.504.66.504 1.203h.063ZM9.704 5.4c-.345-.275-.866-.41-1.557-.41v.062c.684 0 1.189.134 1.518.397l.04-.05Zm-1.557-.41H5.774v.062h2.372V4.99Zm-2.34.031v-.61h-.063v.61h.063Zm-.032-.578h2.419v-.062h-2.42v.062Zm2.419 0c.877 0 1.534.196 1.976.583l.041-.047c-.457-.4-1.132-.598-2.017-.598v.062Zm1.976.583c.449.387.674.928.674 1.626h.063c0-.713-.231-1.272-.696-1.673l-.04.047Zm.674 1.626c0 .712-.226 1.259-.674 1.646l.041.047c.465-.401.695-.967.695-1.693h-.062Zm-.674 1.646c-.442.387-1.099.583-1.976.583v.062c.885 0 1.56-.198 2.018-.598l-.042-.047Zm-1.976.583h-2.42v.062h2.419v-.062Z" fill="#FF6B6B" mask="url(#e)"/></g></g></g><defs><clipPath id="a"><path fill="#fff" d="M0 0h16v16H0z"/></clipPath><clipPath id="b"><path fill="#fff" d="M0 0h16v16H0z"/></clipPath><filter id="c" x="-.125" y="0" width="16.25" height="16.25" filterUnits="userSpaceOnUse" color-interpolation-filters="sRGB"><feFlood flood-opacity="0" result="BackgroundImageFix"/><feColorMatrix in="SourceAlpha" values="0 0 0 0 0 0 0 0 0 0 0 0 0 0 0 0 0 0 127 0" result="hardAlpha"/><feOffset dy=".125"/><feGaussianBlur stdDeviation=".063"/><feComposite in2="hardAlpha" operator="out"/><feColorMatrix values="0 0 0 0 0 0 0 0 0 0 0 0 0 0 0 0 0 0 0.25 0"/><feBlend in2="BackgroundImageFix" result="effect1_dropShadow_3_21"/><feBlend in="SourceGraphic" in2="effect1_dropShadow_3_21" result="shape"/></filter><filter id="d" x="4.799" y="3.756" width="6.731" height="8.85" filterUnits="userSpaceOnUse" color-interpolation-filters="sRGB"><feFlood flood-opacity="0" result="BackgroundImageFix"/><feColorMatrix in="SourceAlpha" values="0 0 0 0 0 0 0 0 0 0 0 0 0 0 0 0 0 0 127 0" result="hardAlpha"/><feOffset/><feGaussianBlur stdDeviation=".313"/><feComposite in2="hardAlpha" operator="out"/><feColorMatrix values="0 0 0 0 1 0 0 0 0 0.419608 0 0 0 0 0.419608 0 0 0 1 0"/><feBlend in2="BackgroundImageFix" result="effect1_dropShadow_3_21"/><feBlend in="SourceGraphic" in2="effect1_dropShadow_3_21" result="shape"/></filter></defs></svg>