<svg width="16" height="16" viewBox="0 0 16 16" fill="none" xmlns="http://www.w3.org/2000/svg">
<g clip-path="url(#clip0_3_21)">
<g clip-path="url(#clip1_3_21)">
<g filter="url(#filter0_d_3_21)">
<rect width="16" height="16" rx="1" fill="#222222"/>
</g>
<g filter="url(#filter1_d_3_21)">
<mask id="path-2-outside-1_3_21" maskUnits="userSpaceOnUse" x="4.96001" y="4.03998" width="6" height="8" fill="black">
<rect fill="white" x="4.96001" y="4.03998" width="6" height="8"/>
<path d="M5.45553 11.9494V4.41185H6.1399V11.9494H5.45553ZM5.77428 8.91185V8.30248H8.14615C8.83365 8.30248 9.34615 8.1681 9.68365 7.89935C10.0274 7.62435 10.1993 7.20873 10.1993 6.65248C10.1993 6.10248 10.0274 5.6931 9.68365 5.42435C9.34615 5.1556 8.83365 5.02123 8.14615 5.02123H5.77428V4.41185H8.19303C9.07428 4.41185 9.7399 4.60873 10.1899 5.00248C10.6462 5.39623 10.8743 5.94623 10.8743 6.65248C10.8743 7.37123 10.6462 7.92748 10.1899 8.32123C9.7399 8.71498 9.07428 8.91185 8.19303 8.91185H5.77428Z"/>
</mask>
<path d="M5.45553 11.9494V4.41185H6.1399V11.9494H5.45553ZM5.77428 8.91185V8.30248H8.14615C8.83365 8.30248 9.34615 8.1681 9.68365 7.89935C10.0274 7.62435 10.1993 7.20873 10.1993 6.65248C10.1993 6.10248 10.0274 5.6931 9.68365 5.42435C9.34615 5.1556 8.83365 5.02123 8.14615 5.02123H5.77428V4.41185H8.19303C9.07428 4.41185 9.7399 4.60873 10.1899 5.00248C10.6462 5.39623 10.8743 5.94623 10.8743 6.65248C10.8743 7.37123 10.6462 7.92748 10.1899 8.32123C9.7399 8.71498 9.07428 8.91185 8.19303 8.91185H5.77428Z" fill="white"/>
<path d="M5.45553 11.9494H5.42428V11.9806H5.45553V11.9494ZM5.45553 4.41185V4.3806H5.42428V4.41185H5.45553ZM6.1399 4.41185H6.17115V4.3806H6.1399V4.41185ZM6.1399 11.9494V11.9806H6.17115V11.9494H6.1399ZM5.77428 8.91185H5.74303V8.9431H5.77428V8.91185ZM5.77428 8.30248V8.27123H5.74303V8.30248H5.77428ZM9.68365 7.89935L9.70312 7.9238L9.70317 7.92376L9.68365 7.89935ZM9.68365 5.42435L9.66418 5.4488L9.6644 5.44897L9.68365 5.42435ZM5.77428 5.02123H5.74303V5.05248H5.77428V5.02123ZM5.77428 4.41185V4.3806H5.74303V4.41185H5.77428ZM10.1899 5.00248L10.1693 5.026L10.1695 5.02614L10.1899 5.00248ZM10.1899 8.32123L10.1695 8.29757L10.1693 8.29771L10.1899 8.32123ZM5.48678 11.9494V4.41185H5.42428V11.9494H5.48678ZM5.45553 4.4431H6.1399V4.3806H5.45553V4.4431ZM6.10865 4.41185V11.9494H6.17115V4.41185H6.10865ZM6.1399 11.9181H5.45553V11.9806H6.1399V11.9181ZM5.80553 8.91185V8.30248H5.74303V8.91185H5.80553ZM5.77428 8.33373H8.14615V8.27123H5.77428V8.33373ZM8.14615 8.33373C8.8368 8.33373 9.35765 8.1989 9.70312 7.9238L9.66419 7.87491C9.33466 8.13731 8.8305 8.27123 8.14615 8.27123V8.33373ZM9.70317 7.92376C10.0562 7.6413 10.2305 7.21549 10.2305 6.65248H10.168C10.168 7.20197 9.99857 7.6074 9.66413 7.87495L9.70317 7.92376ZM10.2305 6.65248C10.2305 6.09561 10.0562 5.67592 9.7029 5.39973L9.6644 5.44897C9.99865 5.71029 10.168 6.10934 10.168 6.65248H10.2305ZM9.70312 5.39991C9.35765 5.12481 8.8368 4.98998 8.14615 4.98998V5.05248C8.8305 5.05248 9.33466 5.1864 9.66419 5.4488L9.70312 5.39991ZM8.14615 4.98998H5.77428V5.05248H8.14615V4.98998ZM5.80553 5.02123V4.41185H5.74303V5.02123H5.80553ZM5.77428 4.4431H8.19303V4.3806H5.77428V4.4431ZM8.19303 4.4431C9.07021 4.4431 9.72719 4.63913 10.1693 5.026L10.2105 4.97896C9.75261 4.57832 9.07835 4.3806 8.19303 4.3806V4.4431ZM10.1695 5.02614C10.6176 5.41291 10.843 5.95359 10.843 6.65248H10.9055C10.9055 5.93887 10.6747 5.37955 10.2103 4.97882L10.1695 5.02614ZM10.843 6.65248C10.843 7.36406 10.6175 7.91091 10.1695 8.29757L10.2103 8.34489C10.6748 7.94405 10.9055 7.37839 10.9055 6.65248H10.843ZM10.1693 8.29771C9.72719 8.68457 9.07021 8.8806 8.19303 8.8806V8.9431C9.07835 8.9431 9.75261 8.74538 10.2105 8.34475L10.1693 8.29771ZM8.19303 8.8806H5.77428V8.9431H8.19303V8.8806Z" fill="#FF6B6B" mask="url(#path-2-outside-1_3_21)"/>
</g>
</g>
</g>
<defs>
<filter id="filter0_d_3_21" x="-0.125" y="0" width="16.25" height="16.25" filterUnits="userSpaceOnUse" color-interpolation-filters="sRGB">
<feFlood flood-opacity="0" result="BackgroundImageFix"/>
<feColorMatrix in="SourceAlpha" type="matrix" values="0 0 0 0 0 0 0 0 0 0 0 0 0 0 0 0 0 0 127 0" result="hardAlpha"/>
<feOffset dy="0.125"/>
<feGaussianBlur stdDeviation="0.0625"/>
<feComposite in2="hardAlpha" operator="out"/>
<feColorMatrix type="matrix" values="0 0 0 0 0 0 0 0 0 0 0 0 0 0 0 0 0 0 0.25 0"/>
<feBlend mode="normal" in2="BackgroundImageFix" result="effect1_dropShadow_3_21"/>
<feBlend mode="normal" in="SourceGraphic" in2="effect1_dropShadow_3_21" result="shape"/>
</filter>
<filter id="filter1_d_3_21" x="4.79927" y="3.75562" width="6.73126" height="8.84998" filterUnits="userSpaceOnUse" color-interpolation-filters="sRGB">
<feFlood flood-opacity="0" result="BackgroundImageFix"/>
<feColorMatrix in="SourceAlpha" type="matrix" values="0 0 0 0 0 0 0 0 0 0 0 0 0 0 0 0 0 0 127 0" result="hardAlpha"/>
<feOffset/>
<feGaussianBlur stdDeviation="0.3125"/>
<feComposite in2="hardAlpha" operator="out"/>
<feColorMatrix type="matrix" values="0 0 0 0 1 0 0 0 0 0.419608 0 0 0 0 0.419608 0 0 0 1 0"/>
<feBlend mode="normal" in2="BackgroundImageFix" result="effect1_dropShadow_3_21"/>
<feBlend mode="normal" in="SourceGraphic" in2="effect1_dropShadow_3_21" result="shape"/>
</filter>
<clipPath id="clip0_3_21">
<rect width="16" height="16" fill="white"/>
</clipPath>
<clipPath id="clip1_3_21">
<rect width="16" height="16" fill="white"/>
</clipPath>
</defs>
</svg>
